<?xml version="1.0" encoding="utf-8"?>
<svg style="transform: scaleY(-1);" viewBox="0 0 1440 320" xmlns="http://www.w3.org/2000/svg" xmlns:bx="https://boxy-svg.com">
  <path fill="#273036" fill-opacity="1" d="M0,96L34.3,85.3C68.6,75,137,53,206,37.3C274.3,21,343,11,411,10.7C480,11,549,21,617,53.3C685.7,85,754,139,823,144C891.4,149,960,107,1029,106.7C1097.1,107,1166,149,1234,170.7C1302.9,192,1371,192,1406,192L1440,192L1440,320L1405.7,320C1371.4,320,1303,320,1234,320C1165.7,320,1097,320,1029,320C960,320,891,320,823,320C754.3,320,686,320,617,320C548.6,320,480,320,411,320C342.9,320,274,320,206,320C137.1,320,69,320,34,320L0,320Z" data-darkreader-inline-fill="" style="--darkreader-inline-fill:#323639;"/>
  <circle style="fill: rgba(255, 251, 0, 0.4);" transform="matrix(1, 0, 0, -1, 0, 0)" cx="62.612" cy="-263" r="22.632"/>
  <path style="fill: rgb(216, 216, 216);" transform="matrix(0.95448, 0.298275, 0.298275, -0.95448, 171.846978, 262.649417)" d="M 1144.061 332.212 A 21.176 21.176 0 1 1 1144.061 353.388 A 15.495 15.495 0 1 0 1144.061 332.212 Z" bx:shape="crescent 1162.4 342.8 21.176 300 0.7 1@4cda1645"/>
  <ellipse style="fill: none;" transform="matrix(1, 0, 0, -1, 0, 0)" cx="308.684" cy="-246.191" rx="21.576" ry="16.12"/>
  <path d="M 182.4 379.893 L 185.529 388.894 L 195.056 389.088 L 187.462 394.845 L 190.222 403.966 L 182.4 398.523 L 174.578 403.966 L 177.338 394.845 L 169.744 389.088 L 179.271 388.894 Z" style="fill: rgb(216, 216, 216);" transform="matrix(-0.090534, -0.995893, -0.995893, 0.090534, 506.043864, 310.431319)" bx:shape="star 182.4 393.2 13.307 13.307 0.4 5 1@519033ef"/>
  <path d="M 237.6 334.726 L 241.379 345.598 L 252.887 345.833 L 243.715 352.787 L 247.048 363.804 L 237.6 357.23 L 228.152 363.804 L 231.485 352.787 L 222.313 345.833 L 233.821 345.598 Z" style="fill: rgb(216, 216, 216);" transform="matrix(0.224862, -0.974391, -0.974391, -0.224862, 469.466314, 538.630322)" bx:shape="star 237.6 350.8 16.074 16.074 0.4 5 1@51588460"/>
  <path d="M 284.8 416.504 L 288.349 426.715 L 299.157 426.935 L 290.543 433.466 L 293.673 443.813 L 284.8 437.638 L 275.927 443.813 L 279.057 433.466 L 270.443 426.935 L 281.251 426.715 Z" style="fill: rgb(216, 216, 216);" transform="matrix(-0.478852, -0.877896, -0.877896, 0.478852, 767.437968, 149.899877)" bx:shape="star 284.8 431.6 15.096 15.096 0.4 5 1@a3a89cab"/>
  <path d="M 324.8 320.293 L 328.211 330.105 L 338.597 330.317 L 330.319 336.593 L 333.327 346.536 L 324.8 340.603 L 316.273 346.536 L 319.281 336.593 L 311.003 330.317 L 321.389 330.105 Z" style="fill: rgb(216, 216, 216);" transform="matrix(-0.664364, -0.747409, -0.747409, 0.664364, 778.419884, 272.659023)" bx:shape="star 324.8 334.8 14.507 14.507 0.4 5 1@5353fa8f"/>
  <path d="M -504.047 -210.472 H -493.805 V -189.987 H -473.32 V -179.745 H -493.805 V -159.26 H -504.047 V -179.745 H -524.532 V -189.987 H -504.047 Z" style="fill: rgba(216, 216, 216, 0.07);" transform="matrix(0.84464, 0.535335, 0.535335, -0.84464, 1100.980886, 372.425763)" bx:shape="cross -524.532 -210.472 51.212 51.212 10.243 10.243 0.5 1@3d9aa7aa"/>
  <path d="M -963.51 -624.816 H -949.148 V -596.092 H -920.424 V -581.731 H -949.148 V -553.007 H -963.51 V -581.731 H -992.233 V -596.092 H -963.51 Z" style="fill: rgba(216, 216, 216, 0.09);" transform="matrix(0.95157, -0.307431, -0.307431, -0.95157, 1200.054154, -778.19393)" bx:shape="cross -992.233 -624.816 71.809 71.809 14.362 14.362 0.5 1@1b7286af"/>
  <path d="M 771.2 375.411 L 794.966 392.678 L 785.888 420.617 L 756.512 420.617 L 747.434 392.678 Z" style="fill: rgba(216, 216, 216, 0.06);" transform="matrix(0.971338, -0.237702, -0.237702, -0.971338, -197.548225, 783.003329)" bx:shape="n-gon 771.2 400.4 24.989 24.989 5 0 1@d2b163f7"/>
  <path d="M -1109.424 -529.929 L -1081.735 -481.969 L -1137.114 -481.969 L -1109.424 -529.929 Z" style="fill: rgba(216, 216, 216, 0.06);" transform="matrix(0.772043, 0.635571, 0.635571, -0.772043, 1780.763686, 495.69549)" bx:shape="triangle -1137.114 -529.929 55.379 47.96 0.5 0 1@0af07d9f"/>
  <path style="fill: rgba(216, 216, 216, 0.09);" transform="matrix(-0.493708, -1.217812, -1.217812, 0.493708, 1652.602051, 1261.434937)" d="M 971.292 334.86 L 979.108 334.86 L 980.757 346.797 A 20.761 20.761 0 0 1 985.415 348.726 L 995.022 341.452 L 1000.548 346.978 L 993.274 356.585 A 20.761 20.761 0 0 1 995.203 361.243 L 1007.14 362.892 L 1007.14 370.708 L 995.203 372.357 A 20.761 20.761 0 0 1 993.274 377.015 L 1000.548 386.622 L 995.022 392.148 L 985.415 384.874 A 20.761 20.761 0 0 1 980.757 386.803 L 979.108 398.74 L 971.292 398.74 L 969.643 386.803 A 20.761 20.761 0 0 1 964.985 384.874 L 955.378 392.148 L 949.852 386.622 L 957.126 377.015 A 20.761 20.761 0 0 1 955.197 372.357 L 943.26 370.708 L 943.26 362.892 L 955.197 361.243 A 20.761 20.761 0 0 1 957.126 356.585 L 949.852 346.978 L 955.378 341.452 L 964.985 348.726 A 20.761 20.761 0 0 1 969.643 346.797 Z M 975.2 357.218 A 9.582 9.582 0 0 0 975.2 376.382 A 9.582 9.582 0 0 0 975.2 357.218" bx:shape="cog 975.2 366.8 9.582 20.761 31.94 0.38 8 1@6db5bba8"/>
  <path d="M -857.614 -489.593 H -848.454 V -471.274 H -830.134 V -462.113 H -848.454 V -443.794 H -857.614 V -462.113 H -875.934 V -471.274 H -857.614 Z" style="fill: rgba(216, 216, 216, 0.1);" transform="matrix(0.527935, -0.849285, -0.849285, -0.527935, 917.202954, -744.32059)" bx:shape="cross -875.934 -489.593 45.8 45.8 9.16 9.16 0.5 1@34fdeb4b"/>
  <path d="M 757.6 388.4 m -30.699 0 a 30.699 30.699 0 1 0 61.398 0 a 30.699 30.699 0 1 0 -61.398 0 Z M 757.6 388.4 m -18.42 0 a 18.42 18.42 0 0 1 36.84 0 a 18.42 18.42 0 0 1 -36.84 0 Z" style="fill: rgba(216, 216, 216, 0.1);" transform="matrix(-0.789353, -0.61394, -0.61394, 0.789353, 1875.806114, 423.072105)" bx:shape="ring 757.6 388.4 18.42 18.42 30.699 30.699 1@ffff8721"/>
  <path d="M 449.6 490 m -27.356 0 a 27.356 27.356 0 1 0 54.712 0 a 27.356 27.356 0 1 0 -54.712 0 Z M 449.6 490 m -16.413 0 a 16.413 16.413 0 0 1 32.826 0 a 16.413 16.413 0 0 1 -32.826 0 Z" style="fill: rgba(216, 216, 216, 0.07);" transform="matrix(-0.656179, -0.754605, -0.754605, 0.656179, 1358.570058, 168.294201)" bx:shape="ring 449.6 490 16.413 16.413 27.356 27.356 1@8865d549"/>
  <path d="M 178.4 366.8 m -19.684 0 a 19.684 19.684 0 1 0 39.368 0 a 19.684 19.684 0 1 0 -39.368 0 Z M 178.4 366.8 m -11.81 0 a 11.81 11.81 0 0 1 23.62 0 a 11.81 11.81 0 0 1 -23.62 0 Z" style="fill: rgba(216, 216, 216, 0.08);" transform="matrix(-0.729537, -0.683941, -0.683941, 0.729537, 770.557455, 143.189341)" bx:shape="ring 178.4 366.8 11.81 11.81 19.684 19.684 1@9b4e4cc1"/>
  <path d="M -752.684 -489.485 L -726.94 -444.895 L -778.428 -444.895 L -752.684 -489.485 Z" style="fill: rgba(216, 216, 216, 0.12);" transform="matrix(0.516733, 0.856146, 0.856146, -0.516733, 1776.122382, 587.902106)" bx:shape="triangle -778.428 -489.485 51.488 44.59 0.5 0 1@6e920fa7"/>
  <path d="M 845.6 403.096 L 873.47 423.345 L 862.824 456.107 L 828.376 456.107 L 817.73 423.345 Z" style="fill: rgba(216, 216, 216, 0.08);" transform="matrix(-0.070283, 0.997527, 0.997527, 0.070283, 766.165334, -658.727086)" bx:shape="n-gon 845.6 432.4 29.304 29.304 5 0 1@7aff9b32"/>
  <path d="M 119.37 176.704 H 177.301 L 166.355 173.836 L 192.789 180.762 L 166.355 187.688 L 177.301 184.82 H 119.37 V 176.704 Z" style="fill: rgb(216, 216, 216);" transform="matrix(0.795729, 0.605652, -0.605652, 0.795729, 123.691528, -43.650646)" bx:shape="arrow 119.37 173.836 73.419 13.852 8.116 26.434 10.946 1@78eea84b"/>
  <path d="M -170.717 -181.093 H -87.867 L -103.522 -184.131 L -65.717 -176.795 L -103.522 -169.459 L -87.867 -172.497 H -170.717 V -181.093 Z" style="fill: rgb(216, 216, 216);" transform="matrix(0.484594, -0.874739, -0.771648, -0.670684, 136.564042, -56.824116)" bx:shape="arrow -170.717 -184.131 105 14.672 8.596 37.805 15.655 1@37c53f75"/>
  <path d="M -199.982 -181.093 H -102.93 L -121.268 -184.131 L -76.982 -176.795 L -121.268 -169.459 L -102.93 -172.497 H -199.982 V -181.093 Z" style="fill: rgb(216, 216, 216);" transform="matrix(0.913516, -0.406802, -0.212463, -1.000058, 262.815246, -100.575739)" bx:shape="arrow -199.982 -184.131 123 14.672 8.596 44.286 18.338 1@36656d26"/>
  <path d="M 196.442 190.541 H 291.776 L 273.763 187.449 L 317.265 194.917 L 273.763 202.385 L 291.776 199.292 H 196.442 V 190.541 Z" style="fill: rgb(216, 216, 216);" transform="matrix(0.390779, 0.920484, 0.884293, -0.476028, 11.253454, 36.078064)" bx:shape="arrow 196.442 187.449 120.823 14.936 8.751 43.502 18.013 1@0dc7ef45"/>
  <circle style="fill: rgba(216, 216, 216, 0.1);" transform="matrix(1, 0, 0, -1, 0, 0)" cx="1203.985" cy="-283.834" r="19.672"/>
  <path d="M -959.485 -386.886 L -934.651 -343.872 L -984.32 -343.872 L -959.485 -386.886 Z" style="fill: rgba(216, 216, 216, 0.09);" transform="matrix(0.789795, -0.613371, -0.613371, -0.789795, 1832.555302, -621.041661)" bx:shape="triangle -984.32 -386.886 49.669 43.014 0.5 0 1@bea4e05e"/>
  <path d="M -920.631 -449.988 H -916.696 V -442.12 H -908.828 V -438.185 H -916.696 V -430.316 H -920.631 V -438.185 H -928.5 V -442.12 H -920.631 Z" style="fill: rgba(216, 216, 216, 0.15);" transform="matrix(0.8, 0.600001, 0.600001, -0.8, 2222.679038, 405.207395)" bx:shape="cross -928.5 -449.988 19.672 19.672 3.935 3.935 0.5 1@bfa86ec3"/>
</svg>